<svg width="40" height="40" viewBox="0 0 40 40" fill="none" xmlns="http://www.w3.org/2000/svg">
<path d="M39.9999 19.9896C39.9999 8.9552 31.0401 0 19.9999 0C8.95981 0 0 8.9552 0 19.9896C0 29.9742 7.31202 38.25 16.8897 39.7322V25.7539H11.7816V19.9896H16.8897V15.5841C16.8897 10.5815 19.8558 7.80234 24.4283 7.80234C26.6117 7.80234 28.8773 8.21408 28.8773 8.21408V13.0931H26.3645C23.8722 13.0931 23.0895 14.6577 23.0895 16.2223V19.9691H28.6508L27.7651 25.7333H23.0895V39.7117C32.6878 38.25 39.9999 29.9742 39.9999 19.9896Z" fill="#1877F2"/>
<path d="M27.7856 25.7748L28.6713 20.0105H23.1101V16.2638C23.1101 14.6786 23.9134 13.1346 26.385 13.1346H28.8979V8.23498C28.8979 8.23498 26.6322 7.82324 24.4489 7.82324C19.8763 7.82324 16.9103 10.6024 16.9103 15.605V20.0105H11.8022V25.7748H16.9103V39.7531C17.9196 39.9178 18.97 40.0002 20.0205 40.0002C21.0709 40.0002 22.1214 39.9178 23.1307 39.7531V25.7748H27.7856Z" fill="white"/>
</svg>
