<svg  fill="none" xmlns="http://www.w3.org/2000/svg">
<path d="M20 9.99485C20 4.47761 15.5201 0 10 0C4.47992 0 0 4.47761 0 9.99485C0 14.9871 3.65602 19.1251 8.4449 19.8662V12.877H5.89083V9.99485H8.4449V7.79207C8.4449 5.29079 9.92791 3.90118 12.2142 3.90118C13.3059 3.90118 14.4387 4.10705 14.4387 4.10705V6.54658H13.1823C11.9361 6.54658 11.5448 7.32887 11.5448 8.11117V9.98456H14.3254L13.8826 12.8667H11.5448V19.8559C16.344 19.1251 20 14.9871 20 9.99485Z" fill="#1877F2"/>
<path d="M13.8928 12.8872L14.3357 10.005H11.555V8.13165C11.555 7.33907 11.9567 6.56706 13.1925 6.56706H14.449V4.11724C14.449 4.11724 13.3161 3.91138 12.2245 3.91138C9.93817 3.91138 8.45517 5.30098 8.45517 7.80227V10.005H5.90112V12.8872H8.45517V19.8764C8.9598 19.9587 9.48503 19.9999 10.0103 19.9999C10.5355 19.9999 11.0607 19.9587 11.5653 19.8764V12.8872H13.8928Z" fill="white"/>
</svg>
