<svg width="16" height="16" viewBox="0 0 16 16" fill="none" xmlns="http://www.w3.org/2000/svg">
<path fill-rule="evenodd" clip-rule="evenodd" d="M8 1C8 0.447715 8.44771 0 9 0H13C13.7956 0 14.5587 0.31607 15.1213 0.87868C15.6839 1.44129 16 2.20435 16 3V13C16 13.7957 15.6839 14.5587 15.1213 15.1213C14.5587 15.6839 13.7957 16 13 16H9C8.44771 16 8 15.5523 8 15C8 14.4477 8.44771 14 9 14H13C13.2652 14 13.5196 13.8946 13.7071 13.7071C13.8946 13.5196 14 13.2652 14 13V3C14 2.73478 13.8946 2.48043 13.7071 2.29289C13.5196 2.10536 13.2652 2 13 2H9C8.44771 2 8 1.55228 8 1Z" fill="#A2A2A2"/>
<path fill-rule="evenodd" clip-rule="evenodd" d="M5.29289 4.29289C5.68342 3.90237 6.31658 3.90237 6.70711 4.29289L9.70711 7.29289C10.0976 7.68342 10.0976 8.31658 9.70711 8.70711L6.70711 11.7071C6.31658 12.0976 5.68342 12.0976 5.29289 11.7071C4.90237 11.3166 4.90237 10.6834 5.29289 10.2929L7.58579 8L5.29289 5.70711C4.90237 5.31658 4.90237 4.68342 5.29289 4.29289Z" fill="#A2A2A2"/>
<path fill-rule="evenodd" clip-rule="evenodd" d="M0 8C0 7.44772 0.447715 7 1 7H8C8.55229 7 9 7.44772 9 8C9 8.55229 8.55229 9 8 9H1C0.447715 9 0 8.55229 0 8Z" fill="#A2A2A2"/>
</svg>
