<svg width="41" height="40" viewBox="0 0 41 40" fill="none" xmlns="http://www.w3.org/2000/svg">
<path d="M0.692139 19.1666C0.692139 10.1314 0.692139 5.61377 3.49902 2.80688C6.3059 0 10.8235 0 19.8587 0H21.5254C30.5606 0 35.0783 0 37.8851 2.80688C40.692 5.61377 40.692 10.1314 40.692 19.1666V20.8333C40.692 29.8685 40.692 34.3861 37.8851 37.193C35.0783 39.9999 30.5606 39.9999 21.5254 39.9999H19.8587C10.8235 39.9999 6.3059 39.9999 3.49902 37.193C0.692139 34.3861 0.692139 29.8685 0.692139 20.8333L0.692139 19.1666Z" fill="#2787F5"/>
<path fill-rule="evenodd" clip-rule="evenodd" d="M11.5262 12.5H8.60889C7.77536 12.5 7.60864 12.8923 7.60864 13.3248C7.60864 14.0974 8.59769 17.929 12.2138 22.9965C14.6246 26.4573 18.021 28.3333 21.1118 28.3333C22.9662 28.3333 23.1956 27.9166 23.1956 27.199V24.5833C23.1956 23.75 23.3713 23.5836 23.9585 23.5836C24.3912 23.5836 25.133 23.8 26.8638 25.4685C28.8419 27.4461 29.1679 28.3333 30.2805 28.3333H33.1979C34.0314 28.3333 34.4482 27.9166 34.2078 27.0944C33.9447 26.2749 33.0003 25.0858 31.7471 23.6764C31.0671 22.873 30.0472 22.0078 29.7381 21.5751C29.3055 21.019 29.429 20.7717 29.7381 20.2774C29.7381 20.2774 33.2924 15.2716 33.6634 13.5722C33.8488 12.9541 33.6634 12.5 32.7811 12.5H29.8638C29.122 12.5 28.78 12.8923 28.5945 13.3248C28.5945 13.3248 27.111 16.9402 25.0094 19.2886C24.3294 19.9683 24.0203 20.1846 23.6494 20.1846C23.464 20.1846 23.1955 19.9683 23.1955 19.3504V13.5722C23.1955 12.8305 22.9803 12.5 22.362 12.5H17.7776C17.3141 12.5 17.0353 12.8442 17.0353 13.1704C17.0353 13.8734 18.0861 14.0356 18.1945 16.0132V20.3083C18.1945 21.25 18.0243 21.4207 17.6535 21.4207C16.6645 21.4207 14.2587 17.7892 12.8319 13.6339C12.5523 12.8262 12.2718 12.5 11.5262 12.5Z" fill="white"/>
</svg>
