<svg  fill="none" xmlns="http://www.w3.org/2000/svg">
<path d="M0 9.58333C0 5.06571 0 2.80689 1.40345 1.40345C2.80689 0 5.06571 0 9.58333 0H10.4167C14.9343 0 17.1931 0 18.5965 1.40345C20 2.80689 20 5.06571 20 9.58333V10.4167C20 14.9343 20 17.1931 18.5965 18.5965C17.1931 20 14.9343 20 10.4167 20H9.58333C5.06571 20 2.80689 20 1.40345 18.5965C0 17.1931 0 14.9343 0 10.4167L0 9.58333Z" fill="#2787F5"/>
<path fill-rule="evenodd" clip-rule="evenodd" d="M5.41705 6.25H3.95838C3.54161 6.25 3.45825 6.44617 3.45825 6.66242C3.45825 7.04871 3.95278 8.9645 5.76084 11.4983C6.96622 13.2287 8.66447 14.1667 10.2098 14.1667C11.1371 14.1667 11.2518 13.9583 11.2518 13.5995V12.2917C11.2518 11.875 11.3396 11.7918 11.6332 11.7918C11.8496 11.7918 12.2204 11.9 13.0859 12.7343C14.0749 13.7231 14.2379 14.1667 14.7942 14.1667H16.2529C16.6697 14.1667 16.8781 13.9583 16.7579 13.5472C16.6263 13.1375 16.1541 12.5429 15.5275 11.8382C15.1875 11.4365 14.6776 11.0039 14.523 10.7876C14.3067 10.5095 14.3685 10.3859 14.523 10.1387C14.523 10.1387 16.3002 7.63579 16.4857 6.78608C16.5784 6.47704 16.4857 6.25 16.0445 6.25H14.5859C14.215 6.25 14.044 6.44617 13.9512 6.66242C13.9512 6.66242 13.2095 8.47008 12.1586 9.64429C11.8186 9.98417 11.6641 10.0923 11.4786 10.0923C11.3859 10.0923 11.2517 9.98417 11.2517 9.67521V6.78608C11.2517 6.41525 11.1441 6.25 10.835 6.25H8.54276C8.31101 6.25 8.17159 6.42208 8.17159 6.58521C8.17159 6.93671 8.69701 7.01779 8.75118 8.00658V10.1542C8.75118 10.625 8.66609 10.7104 8.48068 10.7104C7.98618 10.7104 6.7833 8.89462 6.06988 6.81696C5.93009 6.41313 5.78984 6.25 5.41705 6.25Z" fill="white"/>
</svg>
