<svg  fill="none" xmlns="http://www.w3.org/2000/svg">
<path d="M25.0145 2.81075C24.7207 1.70434 23.8551 0.833063 22.7557 0.537387C20.7635 0 12.7742 0 12.7742 0C12.7742 0 4.78496 0 2.7926 0.537387C1.6933 0.833063 0.827559 1.70434 0.533764 2.81075C0 4.816 0 8.99998 0 8.99998C0 8.99998 0 13.1838 0.533764 15.1894C0.827559 16.2957 1.6933 17.1669 2.7926 17.4628C4.78496 18 12.7742 18 12.7742 18C12.7742 18 20.7635 18 22.7557 17.4628C23.8551 17.1669 24.7207 16.2957 25.0145 15.1894C25.5484 13.1838 25.5484 8.99998 25.5484 8.99998C25.5484 8.99998 25.5484 4.816 25.0145 2.81075Z" fill="#FF0000"/>
<path d="M10.1616 12.8004L16.839 9.00182L10.1616 5.20294V12.8004Z" fill="white"/>
</svg>
