<svg width="49" height="34" viewBox="0 0 49 34" fill="none" xmlns="http://www.w3.org/2000/svg">
<path d="M47.4199 5.36231C46.8675 3.28189 45.2399 1.64359 43.1726 1.08762C39.4266 0.0771484 24.4041 0.0771484 24.4041 0.0771484C24.4041 0.0771484 9.38162 0.0771484 5.63531 1.08762C3.56826 1.64359 1.94037 3.28189 1.38793 5.36231C0.384277 9.13284 0.384277 17.0001 0.384277 17.0001C0.384277 17.0001 0.384277 24.8672 1.38793 28.6383C1.94037 30.7185 3.56826 32.3567 5.63531 32.913C9.38162 33.9232 24.4041 33.9232 24.4041 33.9232C24.4041 33.9232 39.4266 33.9232 43.1726 32.913C45.2399 32.3567 46.8675 30.7185 47.4199 28.6383C48.4239 24.8672 48.4239 17.0001 48.4239 17.0001C48.4239 17.0001 48.4239 9.13284 47.4199 5.36231Z" fill="#FF0000"/>
<path d="M19.4912 24.1461L32.0469 17.0035L19.4912 9.86035V24.1461Z" fill="white"/>
</svg>
